#!OML:ASF I:\Actors\actors\Patient Classification 1\Patient 1\Session 1\Subject1.ASF
:FULLY-SPECIFIED
:DEGREES
319
root -0.214878 17.553 8.02036 7.8029 -5.7998 -7.93897
lowerback 1.88503 0.980397 3.68393
upperback -7.63959 1.68834 1.70507
thorax -9.06232 0.63055 -0.416812
lowerneck -5.14066 -11.6362 -10.3544
upperneck 21.14 -16.5447 7.18147
head 8.92566 -8.07063 2.3804
rclavicle -5.76476e-015 3.4191e-014
rhumerus -23.8879 44.0283 -101.761
rradius 85.4773
rwrist -8.54085
rhand -10.5373 -61.3295
rfingers 7.12502
rthumb 15.4662 -269.269
lclavicle -5.76476e-015 3.4191e-014
lhumerus -30.1318 -9.43476 93.8299
lradius 83.567
lwrist 4.62892
lhand -22.2437 -3.95824
lfingers 7.12502
lthumb 4.17343 25.9806
rfemur -0.94158 24.0425 25.3123
rtibia 1.83858
rfoot -10.938 -20.4813
rtoes -0.354667
lfemur 9.70849 -39.2148 -18.1697
ltibia -4.11415
lfoot -19.753 49.2035
ltoes 10.6447
320
root -0.213468 17.5526 8.02057 7.80245 -5.89619 -7.95521
lowerback 1.85353 0.955978 3.63928
upperback -7.63965 1.65338 1.74319
thorax -9.04695 0.618443 -0.347719
lowerneck -4.96809 -11.8512 -10.6689
upperneck 21.0914 -16.8574 7.32413
head 8.95158 -8.23456 2.44053
rclavicle 5.61567e-015 -1.35174e-014
rhumerus -23.7404 44.2999 -101.706
rradius 85.414
rwrist -8.57077
rhand -10.4789 -61.288
rfingers 7.12502
rthumb 15.5224 -269.315
lclavicle 5.61567e-015 -1.35174e-014
lhumerus -30.1399 -10.3293 94.0669
lradius 83.4116
lwrist 4.65195
lhand -22.0121 -3.84527
lfingers 7.12502
lthumb 4.39705 26.0891
rfemur -0.959977 24.042 25.3183
rtibia 1.85192
rfoot -10.8815 -20.4023
rtoes -0.482541
lfemur 9.76848 -39.2462 -18.2154
ltibia -4.11971
lfoot -19.8373 49.3086
ltoes 10.6466
321
root -0.212978 17.5525 8.01968 7.82325 -5.95189 -8.05821
lowerback 1.82836 0.931894 3.67467
upperback -7.65153 1.62668 1.8035
thorax -9.04739 0.605186 -0.300632
lowerneck -4.79323 -12.0861 -10.956
upperneck 21.0073 -17.1866 7.41215
head 8.96042 -8.40939 2.47677
rclavicle 6.85807e-015 -2.78299e-015
rhumerus -23.5799 44.5505 -101.625
rradius 85.3428
rwrist -8.58285
rhand -10.4418 -61.4211
rfingers 7.12502
rthumb 15.5582 -269.185
lclavicle 6.85807e-015 -2.78299e-015
lhumerus -30.2012 -11.1747 94.3169
lradius 83.2608
lwrist 4.55504
lhand -21.8482 -3.63952
lfingers 7.12502
lthumb 4.55536 26.2915
rfemur -0.992789 24.0533 25.4278
rtibia 1.87182
rfoot -10.8132 -20.3588
rtoes -0.713714
lfemur 9.81763 -39.3366 -18.1418
ltibia -4.14806
lfoot -19.9144 49.442
ltoes 10.7308
322
root -0.212529 17.5524 8.01894 7.81941 -5.99407 -8.13055
lowerback 1.81102 0.914461 3.68615
upperback -7.65548 1.60693 1.85568
thorax -9.04363 0.596891 -0.249644
lowerneck -4.60547 -12.2629 -11.0505
upperneck 20.8766 -17.4136 7.33226
head 8.90675 -8.53784 2.44731
rclavicle -1.3418e-014 2.78299e-014
rhumerus -23.4148 44.7556 -101.558
rradius 85.201
rwrist -8.59228
rhand -10.4909 -61.5039
rfingers 7.12502
rthumb 15.5109 -269.098
lclavicle -1.3418e-014 2.78299e-014
lhumerus -30.237 -11.8965 94.5662
lradius 83.1184
lwrist 4.39028
lhand -21.7774 -3.57944
lfingers 7.12502
lthumb 4.62374 26.3501
rfemur -0.987734 24.0602 25.5142
rtibia 1.88417
rfoot -10.8037 -20.3312
rtoes -0.920242
lfemur 9.91693 -39.4165 -18.1275
ltibia -4.19618
lfoot -20.0848 49.5403
ltoes 11.0223
323
root -0.211941 17.5521 8.01827 7.79904 -6.02784 -8.14181
lowerback 1.80401 0.892153 3.65211
upperback -7.65032 1.57664 1.89143
thorax -9.03643 0.586154 -0.189883
lowerneck -4.4623 -12.4167 -11.2197
upperneck 20.7681 -17.6363 7.41589
head 8.89136 -8.65356 2.47855
rclavicle 1.59028e-015 1.55052e-014
rhumerus -23.266 44.9266 -101.522
rradius 85.0516
rwrist -8.57638
rhand -10.5854 -61.5506
rfingers 7.12502
rthumb 15.4198 -269.045
lclavicle 1.59028e-015 1.55052e-014
lhumerus -30.2584 -12.4631 94.7896
lradius 83.0623
lwrist 4.31656
lhand -21.7574 -3.54305
lfingers 7.12502
lthumb 4.64303 26.3861
rfemur -0.972471 24.0356 25.5268
rtibia 1.89541
rfoot -10.842 -20.2771
rtoes -0.896614
lfemur 9.9605 -39.3616 -18.1362
ltibia -4.2117
lfoot -20.1166 49.5241
ltoes 11.0813
324
root -0.211356 17.552 8.01635 7.77846 -6.06909 -8.12428
lowerback 1.82609 0.861507 3.59198
upperback -7.64478 1.53457 1.92157
thorax -9.0466 0.571001 -0.120866
lowerneck -4.35924 -12.515 -11.3817
upperneck 20.6811 -17.7934 7.55961
head 8.88924 -8.73131 2.53411
rclavicle -1.10822e-014 7.95139e-016
rhumerus -23.1212 45.0564 -101.495
rradius 84.9312
rwrist -8.59455
rhand -10.5925 -61.587
rfingers 7.12502
rthumb 15.413 -269.008
lclavicle -1.10822e-014 7.95139e-016
lhumerus -30.2966 -12.8637 94.9743
lradius 83.0838
lwrist 4.36967
lhand -21.7325 -3.50048
lfingers 7.12502
lthumb 4.66704 26.4281
rfemur -0.955828 24.0608 25.5043
rtibia 1.88453
rfoot -10.8688 -20.2552
rtoes -0.754696
lfemur 9.97124 -39.3101 -18.1643
ltibia -4.20441
lfoot -20.0989 49.5197
ltoes 11.0779
325
root -0.210159 17.5511 8.01454 7.74661 -6.10175 -8.12804
lowerback 1.87515 0.829008 3.56812
upperback -7.64893 1.4942 1.95125
thorax -9.08277 0.553558 -0.0730134
lowerneck -4.18716 -12.5844 -11.379
upperneck 20.556 -17.8963 7.55112
head 8.82513 -8.7881 2.53109
rclavicle -9.44227e-016 4.77083e-015
rhumerus -23.0102 45.1261 -101.492
rradius 84.8361
rwrist -8.66639
rhand -10.4587 -61.6532
rfingers 7.12502
rthumb 15.5419 -268.951
lclavicle -9.44227e-016 4.77083e-015
lhumerus -30.3482 -13.1284 95.14
lradius 83.1081
lwrist 4.40057
lhand -21.7248 -3.46991
lfingers 7.12502
lthumb 4.67451 26.4585
rfemur -0.911293 24.0943 25.5192
rtibia 1.86803
rfoot -10.8785 -20.2498
rtoes -0.686382
lfemur 10.0598 -39.4058 -18.2467
ltibia -4.20374
lfoot -20.2447 49.6267
ltoes 11.2375
326
root -0.208658 17.5499 8.01351 7.72055 -6.08822 -8.16678
lowerback 1.91697 0.797887 3.59987
upperback -7.6608 1.4596 1.98402
thorax -9.12223 0.534961 -0.0532053
lowerneck -3.92025 -12.647 -11.5469
upperneck 20.3912 -18.007 7.67763
head 8.76163 -8.85309 2.60145
rclavicle -1.14301e-015 -3.33958e-014
rhumerus -22.9028 45.2221 -101.487
rradius 84.7388
rwrist -8.77914
rhand -10.4542 -61.7316
rfingers 7.12502
rthumb 15.5463 -268.873
lclavicle -1.14301e-015 -3.33958e-014
lhumerus -30.3972 -13.2926 95.2992
lradius 83.1214
lwrist 4.30808
lhand -21.674 -3.33648
lfingers 7.12502
lthumb 4.72359 26.5909
rfemur -0.86721 24.0741 25.5791
rtibia 1.85685
rfoot -10.871 -20.2494
rtoes -0.74158
lfemur 10.1415 -39.4756 -18.2677
ltibia -4.24023
lfoot -20.1907 49.7073
ltoes 11.1358
327
root -0.208119 17.5493 8.01174 7.72527 -6.07779 -8.17661
lowerback 1.92973 0.787124 3.60389
upperback -7.67243 1.44798 2.00296
thorax -9.14355 0.52938 -0.0343895
lowerneck -3.65133 -12.7347 -11.7739
upperneck 20.1698 -18.1636 7.89925
head 8.69918 -8.93657 2.70528
rclavicle -1.92821e-014 3.10104e-014
rhumerus -22.7754 45.3544 -101.445
rradius 84.6536
rwrist -8.92999
rhand -10.6475 -61.7408
rfingers 7.12502
rthumb 15.3601 -268.85
lclavicle -1.92821e-014 3.10104e-014
lhumerus -30.4111 -13.4005 95.4453
lradius 83.111
lwrist 4.14036
lhand -21.6468 -3.25358
lfingers 7.12502
lthumb 4.74983 26.6732
rfemur -0.874226 24.092 25.5928
rtibia 1.85377
rfoot -10.8629 -20.2873
rtoes -0.757383
lfemur 10.1381 -39.4499 -18.2402
ltibia -4.29186
lfoot -19.851 49.7278
ltoes 10.6602
328
root -0.208162 17.5493 8.00967 7.73986 -6.08101 -8.15419
lowerback 1.91958 0.782299 3.5732
upperback -7.68029 1.43933 2.00536
thorax -9.14698 0.527383 -0.0137479
lowerneck -3.52217 -12.842 -11.8984
upperneck 20.0775 -18.3263 7.98259
head 8.68338 -9.02061 2.73712
rclavicle 2.18663e-015 6.75868e-015
rhumerus -22.7151 45.4588 -101.438
rradius 84.5923
rwrist -8.96304
rhand -10.6829 -61.6911
rfingers 7.12502
rthumb 15.3259 -268.897
lclavicle 2.18663e-015 6.75868e-015
lhumerus -30.3994 -13.4369 95.5671
lradius 83.0555
lwrist 4.01339
lhand -21.6781 -3.41972
lfingers 7.12502
lthumb 4.71965 26.5077
rfemur -0.904602 24.1328 25.5583
rtibia 1.86479
rfoot -10.8858 -20.3096
rtoes -0.611653
lfemur 10.1165 -39.4668 -18.2505
ltibia -4.30341
lfoot -19.6973 49.7587
ltoes 10.4246
329
root -0.20814 17.5497 8.00846 7.73747 -6.06682 -8.12897
lowerback 1.90533 0.765976 3.52613
upperback -7.68471 1.41417 2.01346
thorax -9.14497 0.518852 0.0236797
lowerneck -3.627 -12.9575 -11.8683
upperneck 20.2538 -18.4613 7.80706
head 8.757 -9.09028 2.64623
rclavicle 1.80894e-014 -1.39149e-014
rhumerus -22.7202 45.581 -101.465
rradius 84.5339
rwrist -8.84305
rhand -10.4889 -61.6086
rfingers 7.12502
rthumb 15.5128 -268.994
lclavicle 1.80894e-014 -1.39149e-014
lhumerus -30.3973 -13.3838 95.673
lradius 83.011
lwrist 3.94048
lhand -21.6857 -3.5967
lfingers 7.12502
lthumb 4.71225 26.3309
rfemur -0.908972 24.139 25.526
rtibia 1.8722
rfoot -10.9026 -20.3064
rtoes -0.546681
lfemur 10.1162 -39.5094 -18.285
ltibia -4.28954
lfoot -19.7744 49.7764
ltoes 10.5923
330
root -0.207792 17.55 8.0069 7.73081 -6.02931 -8.13657
lowerback 1.92467 0.761747 3.53259
upperback -7.69895 1.41109 2.01988
thorax -9.17244 0.516678 0.0270013
lowerneck -3.49847 -13.0158 -11.9062
upperneck 20.1545 -18.558 7.86978
head 8.72081 -9.13916 2.66924
rclavicle -2.14687e-014 -1.74931e-014
rhumerus -22.7221 45.6922 -101.463
rradius 84.4995
rwrist -8.7473
rhand -10.3303 -61.5522
rfingers 7.12502
rthumb 15.6656 -269.062
lclavicle -2.14687e-014 -1.74931e-014
lhumerus -30.4266 -13.3468 95.7762
lradius 83.0262
lwrist 3.91471
lhand -21.6125 -3.56475
lfingers 7.12502
lthumb 4.78293 26.3613
rfemur -0.903472 24.117 25.5329
rtibia 1.87059
rfoot -10.9004 -20.3174
rtoes -0.609546
lfemur 10.094 -39.5195 -18.26
ltibia -4.27754
lfoot -19.7139 49.779
ltoes 10.448
331
root -0.206856 17.5498 8.00452 7.72238 -5.97254 -8.18782
lowerback 1.97958 0.762585 3.61649
upperback -7.7139 1.42228 2.02801
thorax -9.22046 0.515555 -0.0128366
lowerneck -3.43489 -13.0871 -11.9419
upperneck 20.1219 -18.6624 7.88421
head 8.71502 -9.19211 2.66918
rclavicle 2.68359e-015 -1.86858e-014
rhumerus -22.6954 45.7876 -101.451
rradius 84.4908
rwrist -8.711
rhand -10.2776 -61.5961
rfingers 7.12502
rthumb 15.7163 -269.022
lclavicle 2.68359e-015 -1.86858e-014
lhumerus -30.4758 -13.3503 95.8605
lradius 83.0817
lwrist 3.94685
lhand -21.4946 -3.4841
lfingers 7.12502
lthumb 4.89676 26.4393
rfemur -0.888164 24.0909 25.5902
rtibia 1.85126
rfoot -10.8894 -20.348
rtoes -0.713699
lfemur 10.0626 -39.5282 -18.1724
ltibia -4.26809
lfoot -19.6141 49.7487
ltoes 10.2291
332
root -0.206484 17.5498 8.00271 7.71289 -5.93827 -8.21494
lowerback 2.02126 0.75751 3.65435
upperback -7.70985 1.42194 2.04918
thorax -9.2409 0.513265 -0.0120018
lowerneck -3.4199 -13.147 -11.955
upperneck 20.1308 -18.7341 7.82196
head 8.71844 -9.23198 2.64166
rclavicle 3.47873e-016 -9.93923e-015
rhumerus -22.6393 45.9188 -101.455
rradius 84.4736
rwrist -8.68576
rhand -10.3418 -61.6948
rfingers 7.12502
rthumb 15.6545 -268.919
lclavicle 3.47873e-016 -9.93923e-015
lhumerus -30.4879 -13.3345 95.9124
lradius 83.0986
lwrist 3.97018
lhand -21.4658 -3.50701
lfingers 7.12502
lthumb 4.92456 26.4158
rfemur -0.86632 24.103 25.6247
rtibia 1.8166
rfoot -10.8885 -20.3851
rtoes -0.660582
lfemur 10.04 -39.4888 -18.1134
ltibia -4.25493
lfoot -19.5981 49.6539
ltoes 10.239
